<?xml version="1.0" encoding="UTF-8"?>
<svg version="1.1" xmlns="http://www.w3.org/2000/svg" width="285" height="234">
<path d="M0 0 C2.35546875 0.12890625 2.35546875 0.12890625 5 1 C6.73828125 3.15234375 6.73828125 3.15234375 8.3125 5.9375 C22.17703203 29.01523719 43.19636023 42.50130554 69 49 C84.24774832 52.49563844 102.30658537 51.2220498 117 46 C118.05832031 45.62617188 119.11664063 45.25234375 120.20703125 44.8671875 C139.71155605 37.30574143 155.68074667 24.35992219 166.4921875 6.4453125 C167.88403061 4.18807471 169.3743696 2.09287746 171 0 C172.65 0.33 174.3 0.66 176 1 C175.44332094 5.51247416 173.57007479 8.82309626 171.125 12.5625 C170.72571289 13.17383789 170.32642578 13.78517578 169.91503906 14.41503906 C155.0538219 36.54072167 132.26428829 50.95444346 106.25 56.3125 C100.81136489 57.18758866 95.49858285 57.14282033 90 57 C90 62.94 90 68.88 90 75 C88.35 75 86.7 75 85 75 C85 69.06 85 63.12 85 57 C83.55625 57.0825 82.1125 57.165 80.625 57.25 C55.87269485 57.15467662 32.71286294 44.31993782 15.3671875 27.4375 C8.79891136 20.52775385 0.01073643 10.8945777 -1 1 C-0.67 0.67 -0.34 0.34 0 0 Z " fill="#FFFFFF" transform="translate(55,159)"/>
<path d="M0 0 C0.99 0.66 1.98 1.32 3 2 C3.13288395 4.74626822 3.1388213 7.27498923 3 10 C3 11.32 3 12.64 3 14 C2.34 14 1.68 14 1 14 C1.495 19.445 1.495 19.445 2 25 C2.24234375 24.10796875 2.4846875 23.2159375 2.734375 22.296875 C3.06953125 21.12640625 3.4046875 19.9559375 3.75 18.75 C4.07484375 17.58984375 4.3996875 16.4296875 4.734375 15.234375 C6.04567906 11.88326462 7.17729789 10.19604045 10 8 C12.625 8.0625 12.625 8.0625 15 9 C16.9451 11.91765 17.45276317 13.62537285 18 17 C18.36351562 16.06027344 18.36351562 16.06027344 18.734375 15.1015625 C19.23710937 13.87566406 19.23710937 13.87566406 19.75 12.625 C20.07484375 11.81289062 20.3996875 11.00078125 20.734375 10.1640625 C22.19483944 7.66684861 23.33869601 7.01755741 26 6 C28.02055843 10.39251833 29.40895235 14.15340923 30 19 C30.99 16.525 30.99 16.525 32 14 C32.66 14 33.32 14 34 14 C34.23168419 17.32080666 34.12057918 19.68081981 32.9375 22.8125 C31 25 31 25 27.4375 25.875 C24 26 24 26 22 25 C22 24.01 22 23.02 22 22 C22.99 22 23.98 22 25 22 C24.505 18.04 24.505 18.04 24 14 C23.34 14 22.68 14 22 14 C21.814375 15.423125 21.814375 15.423125 21.625 16.875 C21 20 21 20 19 22 C18.01 22 17.02 22 16 22 C15.5359375 23.2065625 15.5359375 23.2065625 15.0625 24.4375 C14 27 14 27 13 28 C11.14375 27.9690625 11.14375 27.9690625 9.25 27.9375 C6.53935081 27.89424496 5.05644443 27.97742223 2.5 29 C-1.12079138 30.44831655 -4.11283436 30.19435828 -8 30 C-9.81115956 28.18884044 -9.38199448 25.38721773 -9.5625 22.9375 C-9.64628906 21.83277344 -9.73007813 20.72804687 -9.81640625 19.58984375 C-9.87699219 18.73519531 -9.93757813 17.88054687 -10 17 C-11.65722824 20.69109927 -12.96481007 23.83487804 -13.8125 27.8125 C-15 31 -15 31 -17.8125 32.4375 C-23.16836735 33.38265306 -23.16836735 33.38265306 -26 33 C-27.8125 31.625 -27.8125 31.625 -29 30 C-29 29.34 -29 28.68 -29 28 C-30.87880872 28.04768403 -30.87880872 28.04768403 -33 29 C-35.26325246 31.97763043 -35.26325246 31.97763043 -37 35 C-37.886875 34.731875 -38.77375 34.46375 -39.6875 34.1875 C-41.3271875 34.0946875 -41.3271875 34.0946875 -43 34 C-43.78375 34.804375 -44.5675 35.60875 -45.375 36.4375 C-48.08992415 39.0877831 -48.51803402 39.4350009 -52.0625 39.625 C-56 39 -56 39 -58.5 36.875 C-60.32974251 33.36799352 -60.67707738 31.91200262 -60 28 C-58.52097683 24.8781864 -56.82413298 21.93164228 -55 19 C-55.99 19.33 -56.98 19.66 -58 20 C-59.22520264 23.00847418 -59.22520264 23.00847418 -60 26 C-60.99 26 -61.98 26 -63 26 C-62.51098901 19.64285714 -62.51098901 19.64285714 -60.0625 16.5625 C-58 15 -58 15 -56 15 C-55.731875 13.88625 -55.46375 12.7725 -55.1875 11.625 C-54 8 -54 8 -51 6 C-47.375 5.8125 -47.375 5.8125 -44 6 C-43 7 -43 7 -42.625 10.375 C-43 14 -43 14 -45.3125 15.9375 C-48 17 -48 17 -51 17 C-49.74458443 19.51083114 -48.49936512 19.87125446 -46 21 C-46.33 22.32 -46.66 23.64 -47 25 C-47.969375 25.12375 -48.93875 25.2475 -49.9375 25.375 C-50.948125 25.58125 -51.95875 25.7875 -53 26 C-54.35439668 28.70879335 -54.06501451 31.00933268 -54 34 C-52.21858253 34.86358623 -52.21858253 34.86358623 -50 35 C-46.27894488 32.26393006 -45.08145242 29.40899833 -44 25 C-43.57373025 22.00631242 -43.25442103 19.01288057 -43 16 C-42.01 16 -41.02 16 -40 16 C-38.41727399 17.58272601 -38.65264253 19.38034003 -38.4375 21.5625 C-38.31181641 22.80193359 -38.31181641 22.80193359 -38.18359375 24.06640625 C-38.12300781 24.70449219 -38.06242187 25.34257812 -38 26 C-37.86722656 25.38511719 -37.73445313 24.77023438 -37.59765625 24.13671875 C-37.33275391 22.92435547 -37.33275391 22.92435547 -37.0625 21.6875 C-36.80146484 20.48673828 -36.80146484 20.48673828 -36.53515625 19.26171875 C-36 17 -36 17 -35 14 C-34.01 14.33 -33.02 14.66 -32 15 C-31.67 17.97 -31.34 20.94 -31 24 C-30.73445313 23.37351563 -30.46890625 22.74703125 -30.1953125 22.1015625 C-29.84210938 21.28429687 -29.48890625 20.46703125 -29.125 19.625 C-28.77695313 18.81289062 -28.42890625 18.00078125 -28.0703125 17.1640625 C-27 15 -27 15 -25 13 C-20.44444444 13.55555556 -20.44444444 13.55555556 -19 15 C-18.625 17.25 -18.625 17.25 -19 20 C-21.5 22.8125 -21.5 22.8125 -24 25 C-23.34 26.32 -22.68 27.64 -22 29 C-17.73861957 23.74429747 -16.89552505 18.62217208 -16 12 C-15.07380859 12.26490234 -15.07380859 12.26490234 -14.12890625 12.53515625 C-12.00227708 13.17156618 -12.00227708 13.17156618 -9.9375 12.4375 C-9.298125 12.293125 -8.65875 12.14875 -8 12 C-7.01 12.66 -6.02 13.32 -5 14 C-4.3125 17.625 -4.3125 17.625 -4 21 C-4 17.7 -4 14.4 -4 11 C-3.34 11 -2.68 11 -2 11 C-1.90912109 9.93458984 -1.90912109 9.93458984 -1.81640625 8.84765625 C-1.73261719 7.92855469 -1.64882812 7.00945312 -1.5625 6.0625 C-1.48128906 5.14597656 -1.40007812 4.22945312 -1.31640625 3.28515625 C-1 1 -1 1 0 0 Z M-49 9 C-49.66 10.32 -50.32 11.64 -51 13 C-49.35 13 -47.7 13 -46 13 C-46 11.68 -46 10.36 -46 9 C-46.99 9 -47.98 9 -49 9 Z M11 12 C8.77076223 16.32734391 9.07529447 19.28400182 10 24 C10.99 23.67 11.98 23.34 13 23 C12.979375 22.071875 12.95875 21.14375 12.9375 20.1875 C13 17 13 17 14 14 C13.67 13.34 13.34 12.68 13 12 C12.34 12 11.68 12 11 12 Z M-24 17 C-24.33 18.32 -24.66 19.64 -25 21 C-24.01 20.34 -23.02 19.68 -22 19 C-22 18.34 -22 17.68 -22 17 C-22.66 17 -23.32 17 -24 17 Z " fill="#FFFFFF" transform="translate(157,151)"/>
<path d="M0 0 C6.27 0 12.54 0 19 0 C19 5.28 19 10.56 19 16 C16.69 16 14.38 16 12 16 C12 11.38 12 6.76 12 2 C10.68 2 9.36 2 8 2 C8 8.6 8 15.2 8 22 C10.31 22 12.62 22 15 22 C15 22.99 15 23.98 15 25 C12.69 25 10.38 25 8 25 C8 32.59 8 40.18 8 48 C9.32 48 10.64 48 12 48 C12 43.71 12 39.42 12 35 C14.31 35 16.62 35 19 35 C19 40.28 19 45.56 19 51 C13.06 51 7.12 51 1 51 C1 57.6 1 64.2 1 71 C1.66 71 2.32 71 3 71 C3 71.99 3 72.98 3 74 C-3.27 74 -9.54 74 -16 74 C-16 68.72 -16 63.44 -16 58 C-13.69 58 -11.38 58 -9 58 C-9 62.29 -9 66.58 -9 71 C-7.68 71 -6.36 71 -5 71 C-5 64.4 -5 57.8 -5 51 C-7.31 51 -9.62 51 -12 51 C-12 50.01 -12 49.02 -12 48 C-9.69 48 -7.38 48 -5 48 C-5 40.41 -5 32.82 -5 25 C-6.32 25 -7.64 25 -9 25 C-9 29.29 -9 33.58 -9 38 C-11.31 38 -13.62 38 -16 38 C-16 32.72 -16 27.44 -16 22 C-10.06 22 -4.12 22 2 22 C2 15.4 2 8.8 2 2 C1.34 2 0.68 2 0 2 C0 1.34 0 0.68 0 0 Z M4 2 C4 17.18 4 32.36 4 48 C4.33 48 4.66 48 5 48 C5 32.82 5 17.64 5 2 C4.67 2 4.34 2 4 2 Z M-2 25 C-2 40.18 -2 55.36 -2 71 C-1.67 71 -1.34 71 -1 71 C-1 55.82 -1 40.64 -1 25 C-1.33 25 -1.66 25 -2 25 Z M1 25 C1 32.59 1 40.18 1 48 C1.33 48 1.66 48 2 48 C2 40.41 2 32.82 2 25 C1.67 25 1.34 25 1 25 Z " fill="#FFFFFF" transform="translate(141,0)"/>
<path d="M0 0 C7.59 0 15.18 0 23 0 C27 4 27 4 27.49447632 5.97938538 C27.49020126 7.01838234 27.49020126 7.01838234 27.48583984 8.07836914 C27.4919931 8.86921402 27.49814636 9.6600589 27.50448608 10.47486877 C27.49011505 11.31976364 27.47574402 12.16465851 27.4609375 13.03515625 C27.45956284 14.34775673 27.45956284 14.34775673 27.4581604 15.68687439 C27.45212722 17.53357378 27.43638964 19.38026351 27.41162109 21.22680664 C27.37508566 24.05586723 27.370602 26.88361862 27.37109375 29.71289062 C27.36126333 31.50782384 27.34960665 33.30274817 27.3359375 35.09765625 C27.33371185 35.94457535 27.33148621 36.79149445 27.32919312 37.66407776 C27.26543863 41.59982273 27.23013243 43.65480136 25 47 C17.08798382 49.63733873 8.33999734 48 0 48 C0 32.16 0 16.32 0 0 Z M9 5 C9 17.21 9 29.42 9 42 C11.97 42 14.94 42 18 42 C18 29.79 18 17.58 18 5 C15.03 5 12.06 5 9 5 Z " fill="#E3A51A" transform="translate(112,93)"/>
<path d="M0 0 C22 0 22 0 26 3 C26.48101807 5.06913757 26.48101807 5.06913757 26.45410156 7.47143555 C26.45364838 8.82249641 26.45364838 8.82249641 26.45318604 10.20085144 C26.43254089 11.16968765 26.41189575 12.13852386 26.390625 13.13671875 C26.38496521 14.13129593 26.37930542 15.12587311 26.37347412 16.15058899 C26.3510672 19.33004711 26.30086205 22.508382 26.25 25.6875 C26.22994062 27.84178061 26.21168887 29.99607887 26.1953125 32.15039062 C26.15118811 37.43402714 26.0821301 42.71682308 26 48 C23.03 48 20.06 48 17 48 C17 40.08 17 32.16 17 24 C14.03 24 11.06 24 8 24 C8 31.92 8 39.84 8 48 C5.36 48 2.72 48 0 48 C0 32.16 0 16.32 0 0 Z M8 5 C8 9.62 8 14.24 8 19 C10.97 19 13.94 19 17 19 C17 14.38 17 9.76 17 5 C14.03 5 11.06 5 8 5 Z " fill="#E3A51A" transform="translate(143,93)"/>
<path d="M0 0 C1.30130859 -0.01836914 1.30130859 -0.01836914 2.62890625 -0.03710938 C3.46292969 -0.03904297 4.29695313 -0.04097656 5.15625 -0.04296875 C5.91744141 -0.04707764 6.67863281 -0.05118652 7.46289062 -0.05541992 C9.5 0.1875 9.5 0.1875 12.5 2.1875 C12.89440918 4.04026794 12.89440918 4.04026794 12.91992188 6.31420898 C12.93583374 7.16526718 12.95174561 8.01632538 12.96813965 8.89317322 C12.96844177 10.27443138 12.96844177 10.27443138 12.96875 11.68359375 C12.98017029 13.10032127 12.98017029 13.10032127 12.99182129 14.54566956 C13.00263869 16.54547478 13.00546876 18.54533658 13.00097656 20.54516602 C13.00000481 23.60984319 13.04159497 26.67201321 13.0859375 29.73632812 C13.09114464 31.6770781 13.09383269 33.6178368 13.09375 35.55859375 C13.1183429 36.93681557 13.1183429 36.93681557 13.14343262 38.34288025 C13.11745011 40.72799859 13.04673385 42.86587167 12.5 45.1875 C8.61149909 48.70061355 4.53401869 48.64609072 -0.5 48.5625 C-1.19867188 48.57410156 -1.89734375 48.58570313 -2.6171875 48.59765625 C-7.13051975 48.57210909 -10.11595195 48.23055066 -13.5 45.1875 C-14.22968509 42.05658169 -14.10431606 38.97740049 -14.0234375 35.77734375 C-14.01873444 34.85409805 -14.01403137 33.93085236 -14.00918579 32.97962952 C-13.9878146 30.02733138 -13.9311794 27.07681946 -13.875 24.125 C-13.85849697 22.13217832 -13.84414785 20.13933755 -13.83203125 18.14648438 C-13.7980389 14.50489542 -13.76324871 10.8634941 -13.69287109 7.22241211 C-13.68001068 6.48977646 -13.66715027 5.75714081 -13.65390015 5.00230408 C-13.5 3.1875 -13.5 3.1875 -12.5 1.1875 C-8.32171361 -0.20526213 -4.37575966 0.00325094 0 0 Z M-4.5 5.1875 C-4.5 17.3975 -4.5 29.6075 -4.5 42.1875 C-1.53 42.1875 1.44 42.1875 4.5 42.1875 C4.5 29.9775 4.5 17.7675 4.5 5.1875 C1.53 5.1875 -1.44 5.1875 -4.5 5.1875 Z " fill="#E3A51A" transform="translate(76.5,92.8125)"/>
<path d="M0 0 C0.85464844 -0.00708984 1.70929688 -0.01417969 2.58984375 -0.02148438 C6.15327574 0.01465027 8.82452949 0.12228043 12.078125 1.640625 C14.00070806 4.07026293 13.90903086 5.56365599 13.75 8.625 C13.71390625 9.52605469 13.6778125 10.42710938 13.640625 11.35546875 C13.57101562 12.38607422 13.57101562 12.38607422 13.5 13.4375 C10.53 13.4375 7.56 13.4375 4.5 13.4375 C4.5 10.7975 4.5 8.1575 4.5 5.4375 C1.53 5.4375 -1.44 5.4375 -4.5 5.4375 C-4.5 10.0575 -4.5 14.6775 -4.5 19.4375 C-2.2725 19.375625 -0.045 19.31375 2.25 19.25 C8.82849295 19.06726408 8.82849295 19.06726408 11.68701172 20.64331055 C13.5 22.4375 13.5 22.4375 13.98583984 24.75 C13.97351318 26.0803125 13.97351318 26.0803125 13.9609375 27.4375 C13.95707031 28.406875 13.95320313 29.37625 13.94921875 30.375 C13.92472656 31.385625 13.90023438 32.39625 13.875 33.4375 C13.87371094 34.448125 13.87242187 35.45875 13.87109375 36.5 C13.78114421 44.01578368 13.78114421 44.01578368 11.5 47.4375 C7.83648419 48.65867194 4.43947028 48.62156354 0.625 48.625 C-0.08269531 48.63724609 -0.79039062 48.64949219 -1.51953125 48.66210938 C-5.61093221 48.67353787 -8.87409497 48.40210634 -12.5 46.4375 C-14.03266582 43.37216836 -13.60276471 40.16995728 -13.5625 36.8125 C-13.55798828 36.10609375 -13.55347656 35.3996875 -13.54882812 34.671875 C-13.53703875 32.92704725 -13.51910324 31.182263 -13.5 29.4375 C-10.53 29.4375 -7.56 29.4375 -4.5 29.4375 C-4.5 33.7275 -4.5 38.0175 -4.5 42.4375 C-1.53 42.4375 1.44 42.4375 4.5 42.4375 C4.5 36.4975 4.5 30.5575 4.5 24.4375 C-0.34649196 24.47700724 -0.34649196 24.47700724 -5.19287109 24.52758789 C-10.27777778 24.54861111 -10.27777778 24.54861111 -12.5 23.4375 C-13.72397713 19.76556862 -13.76111238 16.32666441 -13.8125 12.5 C-13.84150391 11.78392578 -13.87050781 11.06785156 -13.90039062 10.33007812 C-13.93965961 7.07075241 -13.71139122 4.80468365 -12.07421875 1.9609375 C-8.13749336 -0.36883929 -4.48849412 -0.10493463 0 0 Z " fill="#E3A51A" transform="translate(259.5,92.5625)"/>
<path d="M0 0 C1.25103516 0.00290039 1.25103516 0.00290039 2.52734375 0.00585938 C3.39488281 0.01810547 4.26242188 0.03035156 5.15625 0.04296875 C6.45755859 0.04393555 6.45755859 0.04393555 7.78515625 0.04492188 C14.23417152 0.08977592 14.23417152 0.08977592 17.65625 1.23046875 C18.8322503 3.58246935 18.77709541 4.96781276 18.76977539 7.58837891 C18.76969986 8.48916168 18.76962433 9.38994446 18.76954651 10.31802368 C18.76438522 11.29202118 18.75922394 12.26601868 18.75390625 13.26953125 C18.7524913 14.26552338 18.75107635 15.2615155 18.74961853 16.28768921 C18.74400936 19.47697928 18.7314553 22.66619981 18.71875 25.85546875 C18.71373618 28.0143219 18.70917307 30.17317616 18.70507812 32.33203125 C18.69403695 37.63153732 18.67676614 42.93099123 18.65625 48.23046875 C15.68625 48.23046875 12.71625 48.23046875 9.65625 48.23046875 C9.65625 34.04046875 9.65625 19.85046875 9.65625 5.23046875 C6.68625 5.23046875 3.71625 5.23046875 0.65625 5.23046875 C0.65625 19.42046875 0.65625 33.61046875 0.65625 48.23046875 C-1.98375 48.23046875 -4.62375 48.23046875 -7.34375 48.23046875 C-7.41964036 41.71605874 -7.47228202 35.20176215 -7.50854492 28.68701172 C-7.52365753 26.46952047 -7.54414826 24.25205922 -7.57006836 22.03466797 C-7.60634293 18.85246386 -7.62345139 15.67065393 -7.63671875 12.48828125 C-7.65220261 11.49240997 -7.66768646 10.4965387 -7.68363953 9.4704895 C-7.68386612 8.54968597 -7.68409271 7.62888245 -7.68432617 6.68017578 C-7.69098801 5.86743195 -7.69764984 5.05468811 -7.70451355 4.21731567 C-7.58546158 3.56165619 -7.46640961 2.9059967 -7.34375 2.23046875 C-4.22694828 0.15260093 -3.53658758 -0.01909039 0 0 Z " fill="#E3A51A" transform="translate(193.34375,92.76953125)"/>
<path d="M0 0 C2.97 0 5.94 0 9 0 C9.33 5.61 9.66 11.22 10 17 C10.49371094 15.85660156 10.98742187 14.71320313 11.49609375 13.53515625 C12.14310512 12.044217 12.7902473 10.5533345 13.4375 9.0625 C13.76298828 8.30775391 14.08847656 7.55300781 14.42382812 6.77539062 C16.88671875 1.11328125 16.88671875 1.11328125 18 0 C20.67058851 -0.14115161 23.32432238 -0.04247107 26 0 C25.40903655 3.55916697 24.45659627 6.4561383 22.86328125 9.6875 C22.45142578 10.55117187 22.03957031 11.41484375 21.61523438 12.3046875 C20.74451349 14.106179 19.8642321 15.90307985 18.97460938 17.6953125 C18.56662109 18.55898437 18.15863281 19.42265625 17.73828125 20.3125 C17.35712158 21.09238281 16.97596191 21.87226562 16.58325195 22.67578125 C15.54476118 26.81409525 17.96519996 30.10772142 19.9453125 33.6640625 C20.29980469 34.31117187 20.65429688 34.95828125 21.01953125 35.625 C21.76164785 36.96762792 22.50647921 38.30875859 23.25390625 39.6484375 C26 44.67791323 26 44.67791323 26 48 C23.36 48 20.72 48 18 48 C15.36 43.38 12.72 38.76 10 34 C9.67 38.62 9.34 43.24 9 48 C6.03 48 3.06 48 0 48 C0 32.16 0 16.32 0 0 Z " fill="#E3A51A" transform="translate(216,93)"/>
<path d="M0 0 C7.26 0 14.52 0 22 0 C22 1.65 22 3.3 22 5 C17.71 5 13.42 5 9 5 C9 9.62 9 14.24 9 19 C13.29 19 17.58 19 22 19 C22 20.65 22 22.3 22 24 C17.71 24 13.42 24 9 24 C9 29.94 9 35.88 9 42 C13.29 42 17.58 42 22 42 C22 43.98 22 45.96 22 48 C14.74 48 7.48 48 0 48 C0 32.16 0 16.32 0 0 Z " fill="#E3A51A" transform="translate(12,93)"/>
<path d="M0 0 C2.64 0 5.28 0 8 0 C8 13.86 8 27.72 8 42 C12.29 42 16.58 42 21 42 C21 43.98 21 45.96 21 48 C14.07 48 7.14 48 0 48 C0 32.16 0 16.32 0 0 Z " fill="#E3A51A" transform="translate(38,93)"/>
<path d="M0 0 C2.97 0 5.94 0 9 0 C9 15.84 9 31.68 9 48 C6.03 48 3.06 48 0 48 C0 32.16 0 16.32 0 0 Z " fill="#E3A51A" transform="translate(173,93)"/>
</svg>
